<mxfile host="65bd71144e">
    <diagram id="jG7zebqKyNn8aa4Dpw_x" name="User">
        <mxGraphModel dx="810" dy="696" grid="1" gridSize="10" guides="1" tooltips="1" connect="1" arrows="1" fold="1" page="1" pageScale="1" pageWidth="827" pageHeight="1169" math="0" shadow="0">
            <root>
                <mxCell id="0"/>
                <mxCell id="1" parent="0"/>
                <mxCell id="4" value="" style="edgeStyle=none;html=1;" edge="1" parent="1" source="2" target="3">
                    <mxGeometry relative="1" as="geometry"/>
                </mxCell>
                <mxCell id="12" value="" style="edgeStyle=none;html=1;" edge="1" parent="1" source="2" target="11">
                    <mxGeometry relative="1" as="geometry"/>
                </mxCell>
                <mxCell id="2" value="Login" style="whiteSpace=wrap;html=1;fillColor=#1ba1e2;fontColor=#ffffff;strokeColor=#006EAF;" vertex="1" parent="1">
                    <mxGeometry x="157.5" y="28" width="90" height="40" as="geometry"/>
                </mxCell>
                <mxCell id="7" value="" style="edgeStyle=none;html=1;" edge="1" parent="1" source="3" target="6">
                    <mxGeometry relative="1" as="geometry"/>
                </mxCell>
                <mxCell id="22" value="" style="edgeStyle=none;html=1;" edge="1" parent="1" source="3" target="21">
                    <mxGeometry relative="1" as="geometry"/>
                </mxCell>
                <mxCell id="3" value="Login ok?" style="rhombus;whiteSpace=wrap;html=1;fillColor=#e3c800;fontColor=#000000;strokeColor=#B09500;" vertex="1" parent="1">
                    <mxGeometry x="162.5" y="130" width="80" height="80" as="geometry"/>
                </mxCell>
                <mxCell id="9" value="" style="edgeStyle=none;html=1;" edge="1" parent="1" source="6" target="8">
                    <mxGeometry relative="1" as="geometry"/>
                </mxCell>
                <mxCell id="6" value="Não" style="ellipse;whiteSpace=wrap;html=1;" vertex="1" parent="1">
                    <mxGeometry x="26.5" y="155" width="55" height="30" as="geometry"/>
                </mxCell>
                <mxCell id="10" style="edgeStyle=none;html=1;entryX=0;entryY=0.5;entryDx=0;entryDy=0;" edge="1" parent="1" source="8" target="2">
                    <mxGeometry relative="1" as="geometry"/>
                </mxCell>
                <mxCell id="8" value="Mensagem de erro&lt;br&gt;" style="ellipse;whiteSpace=wrap;html=1;fillColor=#e51400;fontColor=#ffffff;strokeColor=#B20000;" vertex="1" parent="1">
                    <mxGeometry x="10" y="25" width="90" height="45" as="geometry"/>
                </mxCell>
                <mxCell id="15" value="" style="edgeStyle=none;html=1;" edge="1" parent="1" source="11" target="14">
                    <mxGeometry relative="1" as="geometry"/>
                </mxCell>
                <mxCell id="11" value="Cadastro" style="whiteSpace=wrap;html=1;fillColor=#1ba1e2;fontColor=#ffffff;strokeColor=#006EAF;" vertex="1" parent="1">
                    <mxGeometry x="312.5" y="29" width="87.5" height="38" as="geometry"/>
                </mxCell>
                <mxCell id="17" value="" style="edgeStyle=none;html=1;" edge="1" parent="1" source="14" target="16">
                    <mxGeometry relative="1" as="geometry"/>
                </mxCell>
                <mxCell id="23" style="edgeStyle=none;html=1;entryX=1;entryY=1;entryDx=0;entryDy=0;" edge="1" parent="1" source="14" target="2">
                    <mxGeometry relative="1" as="geometry"/>
                </mxCell>
                <mxCell id="14" value="Cadastro &lt;br&gt;ok?" style="rhombus;whiteSpace=wrap;html=1;fillColor=#e3c800;fontColor=#000000;strokeColor=#B09500;" vertex="1" parent="1">
                    <mxGeometry x="316.25" y="126" width="80" height="80" as="geometry"/>
                </mxCell>
                <mxCell id="19" value="" style="edgeStyle=none;html=1;" edge="1" parent="1" source="16" target="18">
                    <mxGeometry relative="1" as="geometry"/>
                </mxCell>
                <mxCell id="16" value="Não" style="ellipse;whiteSpace=wrap;html=1;" vertex="1" parent="1">
                    <mxGeometry x="456.25" y="143" width="63.75" height="46" as="geometry"/>
                </mxCell>
                <mxCell id="20" style="edgeStyle=none;html=1;entryX=1;entryY=0.5;entryDx=0;entryDy=0;" edge="1" parent="1" source="18" target="11">
                    <mxGeometry relative="1" as="geometry"/>
                </mxCell>
                <mxCell id="18" value="Mensagem de erro" style="ellipse;whiteSpace=wrap;html=1;fillColor=#e51400;fontColor=#ffffff;strokeColor=#B20000;" vertex="1" parent="1">
                    <mxGeometry x="451.25" y="18" width="73.75" height="61" as="geometry"/>
                </mxCell>
                <mxCell id="25" value="" style="edgeStyle=none;html=1;" edge="1" parent="1" source="21" target="24">
                    <mxGeometry relative="1" as="geometry"/>
                </mxCell>
                <mxCell id="27" value="" style="edgeStyle=none;html=1;" edge="1" parent="1" source="21" target="26">
                    <mxGeometry relative="1" as="geometry"/>
                </mxCell>
                <mxCell id="29" value="" style="edgeStyle=none;html=1;" edge="1" parent="1" source="21" target="28">
                    <mxGeometry relative="1" as="geometry"/>
                </mxCell>
                <mxCell id="21" value="Hoje" style="whiteSpace=wrap;html=1;fillColor=#1ba1e2;fontColor=#ffffff;strokeColor=#006EAF;" vertex="1" parent="1">
                    <mxGeometry x="142.5" y="250" width="120" height="60" as="geometry"/>
                </mxCell>
                <mxCell id="24" value="Marcar hábito como concluido" style="whiteSpace=wrap;html=1;fillColor=#f5f5f5;strokeColor=#666666;fontColor=#333333;" vertex="1" parent="1">
                    <mxGeometry x="40" y="320" width="90" height="50" as="geometry"/>
                </mxCell>
                <mxCell id="37" style="edgeStyle=none;html=1;entryX=0;entryY=0.5;entryDx=0;entryDy=0;" edge="1" parent="1" source="26" target="36">
                    <mxGeometry relative="1" as="geometry"/>
                </mxCell>
                <mxCell id="26" value="Histórico" style="whiteSpace=wrap;html=1;fillColor=#1ba1e2;strokeColor=#006EAF;fontColor=#ffffff;" vertex="1" parent="1">
                    <mxGeometry x="316.25" y="250" width="120" height="60" as="geometry"/>
                </mxCell>
                <mxCell id="31" value="" style="edgeStyle=none;html=1;" edge="1" parent="1" source="28" target="30">
                    <mxGeometry relative="1" as="geometry"/>
                </mxCell>
                <mxCell id="33" style="edgeStyle=none;html=1;" edge="1" parent="1" source="28" target="32">
                    <mxGeometry relative="1" as="geometry"/>
                </mxCell>
                <mxCell id="35" style="edgeStyle=none;html=1;" edge="1" parent="1" source="28" target="34">
                    <mxGeometry relative="1" as="geometry"/>
                </mxCell>
                <mxCell id="28" value="Hábitos" style="whiteSpace=wrap;html=1;fillColor=#1ba1e2;strokeColor=#006EAF;fontColor=#ffffff;" vertex="1" parent="1">
                    <mxGeometry x="320" y="340" width="120" height="60" as="geometry"/>
                </mxCell>
                <mxCell id="30" value="Ver todos os hábitos" style="whiteSpace=wrap;html=1;fillColor=#f5f5f5;strokeColor=#666666;fontColor=#333333;" vertex="1" parent="1">
                    <mxGeometry x="210" y="450" width="100" height="50" as="geometry"/>
                </mxCell>
                <mxCell id="32" value="Excluir um hábito" style="whiteSpace=wrap;html=1;fillColor=#f5f5f5;strokeColor=#666666;fontColor=#333333;" vertex="1" parent="1">
                    <mxGeometry x="330" y="450" width="100" height="50" as="geometry"/>
                </mxCell>
                <mxCell id="34" value="Cadastrar novo hábito" style="whiteSpace=wrap;html=1;fillColor=#f5f5f5;strokeColor=#666666;fontColor=#333333;" vertex="1" parent="1">
                    <mxGeometry x="456.25" y="450" width="100" height="50" as="geometry"/>
                </mxCell>
                <mxCell id="36" value="Visualizar os dias que completou todos os hábitos" style="whiteSpace=wrap;html=1;fillColor=#f5f5f5;strokeColor=#666666;fontColor=#333333;" vertex="1" parent="1">
                    <mxGeometry x="500" y="255" width="100" height="50" as="geometry"/>
                </mxCell>
            </root>
        </mxGraphModel>
    </diagram>
    <diagram id="XCvW2pjaWlWQkz8dVYQe" name="Components">
        <mxGraphModel dx="667" dy="573" grid="1" gridSize="10" guides="1" tooltips="1" connect="1" arrows="1" fold="1" page="1" pageScale="1" pageWidth="827" pageHeight="1169" math="0" shadow="0">
            <root>
                <mxCell id="anoKKv-Ja-xzEwoSuoOg-0"/>
                <mxCell id="anoKKv-Ja-xzEwoSuoOg-1" parent="anoKKv-Ja-xzEwoSuoOg-0"/>
                <mxCell id="anoKKv-Ja-xzEwoSuoOg-4" value="" style="edgeStyle=none;html=1;" edge="1" parent="anoKKv-Ja-xzEwoSuoOg-1" source="anoKKv-Ja-xzEwoSuoOg-2" target="anoKKv-Ja-xzEwoSuoOg-3">
                    <mxGeometry relative="1" as="geometry"/>
                </mxCell>
                <mxCell id="anoKKv-Ja-xzEwoSuoOg-6" style="edgeStyle=none;html=1;entryX=0.5;entryY=0;entryDx=0;entryDy=0;" edge="1" parent="anoKKv-Ja-xzEwoSuoOg-1" source="anoKKv-Ja-xzEwoSuoOg-2" target="anoKKv-Ja-xzEwoSuoOg-5">
                    <mxGeometry relative="1" as="geometry"/>
                </mxCell>
                <mxCell id="anoKKv-Ja-xzEwoSuoOg-10" style="edgeStyle=none;html=1;" edge="1" parent="anoKKv-Ja-xzEwoSuoOg-1" source="anoKKv-Ja-xzEwoSuoOg-2" target="anoKKv-Ja-xzEwoSuoOg-7">
                    <mxGeometry relative="1" as="geometry"/>
                </mxCell>
                <mxCell id="anoKKv-Ja-xzEwoSuoOg-11" style="edgeStyle=none;html=1;entryX=0.25;entryY=0;entryDx=0;entryDy=0;" edge="1" parent="anoKKv-Ja-xzEwoSuoOg-1" source="anoKKv-Ja-xzEwoSuoOg-2" target="anoKKv-Ja-xzEwoSuoOg-8">
                    <mxGeometry relative="1" as="geometry"/>
                </mxCell>
                <mxCell id="anoKKv-Ja-xzEwoSuoOg-12" style="edgeStyle=none;html=1;entryX=0.5;entryY=0;entryDx=0;entryDy=0;" edge="1" parent="anoKKv-Ja-xzEwoSuoOg-1" source="anoKKv-Ja-xzEwoSuoOg-2" target="anoKKv-Ja-xzEwoSuoOg-9">
                    <mxGeometry relative="1" as="geometry"/>
                </mxCell>
                <mxCell id="anoKKv-Ja-xzEwoSuoOg-2" value="App" style="whiteSpace=wrap;html=1;fillColor=#1ba1e2;fontColor=#ffffff;strokeColor=#006EAF;" vertex="1" parent="anoKKv-Ja-xzEwoSuoOg-1">
                    <mxGeometry x="255" width="120" height="60" as="geometry"/>
                </mxCell>
                <mxCell id="anoKKv-Ja-xzEwoSuoOg-3" value="Login" style="whiteSpace=wrap;html=1;fillColor=#e3c800;strokeColor=#B09500;fontColor=#000000;" vertex="1" parent="anoKKv-Ja-xzEwoSuoOg-1">
                    <mxGeometry x="20" y="150" width="90" height="40" as="geometry"/>
                </mxCell>
                <mxCell id="anoKKv-Ja-xzEwoSuoOg-5" value="Cadastro" style="whiteSpace=wrap;html=1;fillColor=#e3c800;strokeColor=#B09500;fontColor=#000000;" vertex="1" parent="anoKKv-Ja-xzEwoSuoOg-1">
                    <mxGeometry x="150" y="150" width="90" height="40" as="geometry"/>
                </mxCell>
                <mxCell id="anoKKv-Ja-xzEwoSuoOg-7" value="Hábitos" style="whiteSpace=wrap;html=1;fillColor=#e3c800;strokeColor=#B09500;fontColor=#000000;" vertex="1" parent="anoKKv-Ja-xzEwoSuoOg-1">
                    <mxGeometry x="270" y="150" width="90" height="40" as="geometry"/>
                </mxCell>
                <mxCell id="anoKKv-Ja-xzEwoSuoOg-8" value="Hoje" style="whiteSpace=wrap;html=1;fillColor=#e3c800;strokeColor=#B09500;fontColor=#000000;" vertex="1" parent="anoKKv-Ja-xzEwoSuoOg-1">
                    <mxGeometry x="390" y="150" width="90" height="40" as="geometry"/>
                </mxCell>
                <mxCell id="anoKKv-Ja-xzEwoSuoOg-9" value="Histórico" style="whiteSpace=wrap;html=1;fillColor=#e3c800;strokeColor=#B09500;fontColor=#000000;" vertex="1" parent="anoKKv-Ja-xzEwoSuoOg-1">
                    <mxGeometry x="510" y="150" width="90" height="40" as="geometry"/>
                </mxCell>
                <mxCell id="anoKKv-Ja-xzEwoSuoOg-14" style="edgeStyle=none;html=1;entryX=0.5;entryY=0;entryDx=0;entryDy=0;fontColor=#000000;" edge="1" parent="anoKKv-Ja-xzEwoSuoOg-1" source="anoKKv-Ja-xzEwoSuoOg-13" target="anoKKv-Ja-xzEwoSuoOg-3">
                    <mxGeometry relative="1" as="geometry"/>
                </mxCell>
                <mxCell id="anoKKv-Ja-xzEwoSuoOg-15" style="edgeStyle=none;html=1;entryX=0.5;entryY=0;entryDx=0;entryDy=0;fontColor=#000000;" edge="1" parent="anoKKv-Ja-xzEwoSuoOg-1" source="anoKKv-Ja-xzEwoSuoOg-13" target="anoKKv-Ja-xzEwoSuoOg-5">
                    <mxGeometry relative="1" as="geometry"/>
                </mxCell>
                <mxCell id="anoKKv-Ja-xzEwoSuoOg-16" style="edgeStyle=none;html=1;entryX=0.5;entryY=0;entryDx=0;entryDy=0;fontColor=#000000;" edge="1" parent="anoKKv-Ja-xzEwoSuoOg-1" source="anoKKv-Ja-xzEwoSuoOg-13" target="anoKKv-Ja-xzEwoSuoOg-7">
                    <mxGeometry relative="1" as="geometry"/>
                </mxCell>
                <mxCell id="anoKKv-Ja-xzEwoSuoOg-13" value="&lt;font color=&quot;#000000&quot;&gt;Button&lt;br&gt;Login/Cadastro/Salvar&lt;br&gt;Children Props&lt;br&gt;&lt;/font&gt;" style="whiteSpace=wrap;html=1;fillColor=#d5e8d4;strokeColor=#82b366;" vertex="1" parent="anoKKv-Ja-xzEwoSuoOg-1">
                    <mxGeometry x="50" y="20" width="120" height="60" as="geometry"/>
                </mxCell>
                <mxCell id="anoKKv-Ja-xzEwoSuoOg-18" style="edgeStyle=none;html=1;entryX=0.5;entryY=1;entryDx=0;entryDy=0;fontColor=#000000;" edge="1" parent="anoKKv-Ja-xzEwoSuoOg-1" source="anoKKv-Ja-xzEwoSuoOg-17" target="anoKKv-Ja-xzEwoSuoOg-7">
                    <mxGeometry relative="1" as="geometry"/>
                </mxCell>
                <mxCell id="anoKKv-Ja-xzEwoSuoOg-19" style="edgeStyle=none;html=1;entryX=0.5;entryY=1;entryDx=0;entryDy=0;fontColor=#000000;" edge="1" parent="anoKKv-Ja-xzEwoSuoOg-1" source="anoKKv-Ja-xzEwoSuoOg-17" target="anoKKv-Ja-xzEwoSuoOg-8">
                    <mxGeometry relative="1" as="geometry"/>
                </mxCell>
                <mxCell id="anoKKv-Ja-xzEwoSuoOg-20" style="edgeStyle=none;html=1;entryX=0.5;entryY=1;entryDx=0;entryDy=0;fontColor=#000000;" edge="1" parent="anoKKv-Ja-xzEwoSuoOg-1" source="anoKKv-Ja-xzEwoSuoOg-17" target="anoKKv-Ja-xzEwoSuoOg-9">
                    <mxGeometry relative="1" as="geometry"/>
                </mxCell>
                <mxCell id="anoKKv-Ja-xzEwoSuoOg-17" value="&lt;font color=&quot;#000000&quot;&gt;Menu &amp;amp; Footer&lt;br&gt;&lt;/font&gt;" style="whiteSpace=wrap;html=1;fillColor=#d5e8d4;strokeColor=#82b366;" vertex="1" parent="anoKKv-Ja-xzEwoSuoOg-1">
                    <mxGeometry x="375" y="220" width="120" height="60" as="geometry"/>
                </mxCell>
                <mxCell id="anoKKv-Ja-xzEwoSuoOg-22" style="edgeStyle=none;html=1;fontColor=#000000;" edge="1" parent="anoKKv-Ja-xzEwoSuoOg-1" source="anoKKv-Ja-xzEwoSuoOg-21" target="anoKKv-Ja-xzEwoSuoOg-3">
                    <mxGeometry relative="1" as="geometry"/>
                </mxCell>
                <mxCell id="anoKKv-Ja-xzEwoSuoOg-23" style="edgeStyle=none;html=1;entryX=0.5;entryY=1;entryDx=0;entryDy=0;fontColor=#000000;" edge="1" parent="anoKKv-Ja-xzEwoSuoOg-1" source="anoKKv-Ja-xzEwoSuoOg-21" target="anoKKv-Ja-xzEwoSuoOg-5">
                    <mxGeometry relative="1" as="geometry"/>
                </mxCell>
                <mxCell id="anoKKv-Ja-xzEwoSuoOg-21" value="&lt;font color=&quot;#000000&quot;&gt;Input&lt;br&gt;Usar useForm (Origamid)&lt;br&gt;&lt;/font&gt;" style="whiteSpace=wrap;html=1;fillColor=#d5e8d4;strokeColor=#82b366;" vertex="1" parent="anoKKv-Ja-xzEwoSuoOg-1">
                    <mxGeometry x="20" y="230" width="120" height="60" as="geometry"/>
                </mxCell>
                <mxCell id="anoKKv-Ja-xzEwoSuoOg-25" style="edgeStyle=none;html=1;entryX=0.5;entryY=1;entryDx=0;entryDy=0;fontColor=#000000;" edge="1" parent="anoKKv-Ja-xzEwoSuoOg-1" source="anoKKv-Ja-xzEwoSuoOg-24" target="anoKKv-Ja-xzEwoSuoOg-7">
                    <mxGeometry relative="1" as="geometry"/>
                </mxCell>
                <mxCell id="anoKKv-Ja-xzEwoSuoOg-24" value="&lt;font color=&quot;#000000&quot;&gt;Hábito&lt;br&gt;&lt;/font&gt;" style="whiteSpace=wrap;html=1;fillColor=#d5e8d4;strokeColor=#82b366;" vertex="1" parent="anoKKv-Ja-xzEwoSuoOg-1">
                    <mxGeometry x="210" y="230" width="120" height="60" as="geometry"/>
                </mxCell>
                <mxCell id="anoKKv-Ja-xzEwoSuoOg-27" style="edgeStyle=none;html=1;entryX=0.5;entryY=0;entryDx=0;entryDy=0;fontColor=#000000;" edge="1" parent="anoKKv-Ja-xzEwoSuoOg-1" source="anoKKv-Ja-xzEwoSuoOg-26" target="anoKKv-Ja-xzEwoSuoOg-8">
                    <mxGeometry relative="1" as="geometry"/>
                </mxCell>
                <mxCell id="anoKKv-Ja-xzEwoSuoOg-26" value="&lt;font color=&quot;#000000&quot;&gt;Hábito para realizar&lt;br&gt;&lt;/font&gt;" style="whiteSpace=wrap;html=1;fillColor=#d5e8d4;strokeColor=#82b366;" vertex="1" parent="anoKKv-Ja-xzEwoSuoOg-1">
                    <mxGeometry x="460" y="20" width="120" height="60" as="geometry"/>
                </mxCell>
            </root>
        </mxGraphModel>
    </diagram>
</mxfile>